<?xml version="1.0" encoding="utf-8"?>
<!-- Generator: Adobe Illustrator 25.4.1, SVG Export Plug-In . SVG Version: 6.00 Build 0)  -->
<svg version="1.1" id="Layer_1" xmlns="http://www.w3.org/2000/svg" xmlns:xlink="http://www.w3.org/1999/xlink" x="0px" y="0px"
	 viewBox="0 0 143.21 38.33" style="enable-background:new 0 0 143.21 38.33;" xml:space="preserve">
<style type="text/css">
	.st0{fill:#6F6F6E;}
	.st1{fill-rule:evenodd;clip-rule:evenodd;fill:#1D1D1B;}
	.st2{fill:#1D1D1B;}
	.st3{fill-rule:evenodd;clip-rule:evenodd;fill:#00917C;}
	.st4{fill:#00917C;}
	.st5{fill:#FFFFFF;}
</style>
<g>
	<g>
		<path class="st0" d="M41.3,35.04v1.04h-7.48v-0.8l6.65,0.01c0.01-0.09,0.01-0.12,0.01-0.21c0.01-0.72-0.31-1.17-0.78-1.46
			c-0.54-0.33-1.15-0.55-2.07-0.55l-2.26-0.01c0.23-0.3,0.81-1.14,1.69-2.28h1.01l-1.28,1.6h0.96c1.09,0,1.96,0.24,2.61,0.73
			C40.99,33.61,41.3,34.25,41.3,35.04"/>
		<path class="st0" d="M16.67,33.62c-0.01-0.11-0.02-0.22-0.02-0.33c0-0.11,0-0.21,0-0.31h1.09c0,0.02,0,0.08,0,0.16
			c0,0.08,0.01,0.18,0.01,0.28c0.01,0.11,0.01,0.23,0.02,0.36c0,0.13,0.01,0.25,0.01,0.36c0.01,0.11,0.01,0.21,0.01,0.3
			c0,0.09,0,0.15,0,0.18c0,0.05,0,0.1,0,0.16c0,0.06,0,0.12-0.01,0.18c0,0.06-0.01,0.12-0.01,0.17c0,0.06-0.01,0.11-0.01,0.16h0.94
			v0.8h-1.08c-0.09,0.31-0.22,0.6-0.38,0.86c-0.16,0.27-0.37,0.51-0.64,0.71c-0.26,0.2-0.58,0.36-0.96,0.49
			c-0.37,0.12-0.81,0.18-1.32,0.19v-0.8c0.36-0.02,0.66-0.06,0.92-0.15c0.26-0.09,0.47-0.2,0.64-0.34c0.18-0.14,0.32-0.31,0.42-0.5
			c0.1-0.19,0.18-0.39,0.24-0.61c0.06-0.22,0.09-0.44,0.11-0.67c0.01-0.23,0.02-0.46,0.02-0.69c0-0.16,0-0.33-0.01-0.49
			C16.68,33.93,16.68,33.77,16.67,33.62"/>
		<rect x="18.61" y="35.29" class="st0" width="2.62" height="0.8"/>
		<path class="st0" d="M21.11,35.29h2.09v-2.78h1.09v3.14c0,0.01,0.01,0.03,0.01,0.04c0,0.06-0.01,0.11-0.04,0.16
			c-0.03,0.05-0.07,0.09-0.12,0.13c-0.05,0.03-0.11,0.06-0.18,0.08c-0.07,0.02-0.14,0.03-0.22,0.03h-2.63V35.29z M21.11,37.42
			c0-0.12,0.06-0.23,0.17-0.31c0.11-0.08,0.26-0.13,0.43-0.13c0.17,0,0.32,0.04,0.43,0.13c0.11,0.09,0.17,0.19,0.17,0.31
			c0,0.12-0.06,0.23-0.17,0.31c-0.12,0.08-0.26,0.12-0.43,0.12c-0.17,0-0.31-0.04-0.43-0.12C21.17,37.65,21.11,37.55,21.11,37.42
			 M22.8,37.42c0-0.12,0.06-0.23,0.17-0.31c0.11-0.08,0.26-0.13,0.43-0.13c0.17,0,0.31,0.04,0.43,0.13
			c0.11,0.09,0.17,0.19,0.17,0.31c0,0.12-0.06,0.23-0.17,0.31c-0.11,0.08-0.26,0.12-0.43,0.12c-0.17,0-0.31-0.04-0.43-0.12
			C22.85,37.65,22.8,37.55,22.8,37.42"/>
		<path class="st0" d="M25.99,32.38c0.84,0,1.53,0.06,2.07,0.18c0.55,0.13,0.98,0.33,1.31,0.6c0.17,0.14,0.3,0.29,0.42,0.47
			c0.11,0.17,0.2,0.36,0.27,0.57c0.07,0.21,0.11,0.44,0.14,0.69c0.03,0.25,0.04,0.52,0.04,0.81c0,0.11-0.05,0.21-0.16,0.28
			c-0.11,0.08-0.24,0.12-0.39,0.12h-4.13v-0.8h3.57c-0.03-0.38-0.09-0.7-0.18-0.97c-0.09-0.26-0.23-0.48-0.41-0.64
			c-0.22-0.18-0.54-0.31-0.94-0.4c-0.41-0.09-0.94-0.13-1.6-0.12L25.99,32.38z"/>
		<path class="st0" d="M33.84,36.09h-1.79c-0.15,0-0.28-0.04-0.39-0.11c-0.11-0.08-0.16-0.17-0.16-0.29c0-0.01,0-0.03,0.01-0.04
			v-4.91h1.09v4.55h1.24V36.09z"/>
		<path class="st0" d="M42.51,30.76c-0.02-0.03-0.03-0.06-0.03-0.1c-0.01-0.04-0.01-0.07-0.01-0.1c0-0.07,0.01-0.14,0.04-0.2
			c0.03-0.07,0.07-0.13,0.12-0.18c0.05-0.05,0.12-0.09,0.2-0.12c0.08-0.03,0.18-0.05,0.28-0.05h0.58v0.35l-0.58,0
			c-0.09,0-0.16,0.02-0.2,0.06c-0.04,0.04-0.06,0.09-0.06,0.14c0,0.05,0.02,0.09,0.06,0.13c0.04,0.04,0.1,0.06,0.18,0.07h0.66v0.35
			h-1.44v-0.35H42.51z"/>
		<path class="st0" d="M56.56,36.09h-1.62c-0.17,0-0.31-0.04-0.4-0.13c-0.1-0.09-0.15-0.19-0.15-0.31l-0.01-2.49l-1.31,0
			c-0.18,0-0.35,0.02-0.51,0.08c-0.16,0.05-0.3,0.12-0.42,0.21c-0.12,0.09-0.21,0.19-0.28,0.31c-0.07,0.12-0.1,0.24-0.1,0.37l0,1.14
			c0.16,0.01,0.3,0.03,0.41,0.04c0.12,0.01,0.24,0.02,0.37,0.02c0.14,0,0.3-0.01,0.48-0.03c0.18-0.02,0.42-0.05,0.71-0.09
			c0.02,0.15,0.03,0.28,0.05,0.4c0.02,0.12,0.03,0.25,0.05,0.39c-0.29,0.03-0.56,0.06-0.81,0.07c-0.25,0.01-0.49,0.02-0.72,0.02
			c-0.23,0-0.44-0.01-0.65-0.04c-0.21-0.02-0.41-0.05-0.61-0.09c-0.12-0.02-0.21-0.06-0.29-0.13c-0.07-0.07-0.11-0.16-0.11-0.25
			v-1.46c0-0.24,0.06-0.47,0.19-0.68c0.12-0.21,0.3-0.4,0.51-0.56c0.22-0.16,0.47-0.28,0.76-0.38c0.29-0.09,0.6-0.14,0.94-0.14h1.67
			c0.09,0,0.18,0.01,0.27,0.04c0.09,0.03,0.16,0.07,0.23,0.11c0.06,0.05,0.12,0.1,0.16,0.16c0.04,0.06,0.06,0.13,0.07,0.19
			l0.02,2.42h1.08V36.09z M51.98,31.22c0-0.12,0.06-0.23,0.17-0.31c0.11-0.09,0.25-0.13,0.42-0.13c0.09,0,0.16,0.01,0.24,0.04
			c0.07,0.02,0.14,0.05,0.19,0.09c0.05,0.04,0.1,0.09,0.13,0.14c0.03,0.05,0.05,0.11,0.05,0.17c0,0.06-0.02,0.12-0.05,0.17
			c-0.03,0.05-0.07,0.1-0.13,0.14c-0.06,0.04-0.12,0.07-0.19,0.09c-0.07,0.02-0.15,0.03-0.24,0.03c-0.17,0-0.31-0.04-0.42-0.12
			C52.04,31.45,51.98,31.34,51.98,31.22 M53.66,31.22c0-0.12,0.05-0.23,0.17-0.31c0.11-0.09,0.26-0.13,0.43-0.13
			c0.09,0,0.16,0.01,0.24,0.04c0.07,0.02,0.14,0.05,0.19,0.09c0.05,0.04,0.1,0.09,0.13,0.14c0.03,0.05,0.05,0.11,0.05,0.17
			c0,0.06-0.02,0.12-0.05,0.17c-0.03,0.05-0.08,0.1-0.13,0.14c-0.05,0.04-0.12,0.07-0.19,0.09c-0.07,0.02-0.15,0.03-0.24,0.03
			c-0.17,0-0.31-0.04-0.43-0.12C53.72,31.45,53.66,31.34,53.66,31.22"/>
		<rect x="56.44" y="35.29" class="st0" width="2.62" height="0.8"/>
		<path class="st0" d="M60.28,35.29v-2.78h1.1v2.78h1.15v0.8h-3.52v-0.8H60.28z M59.32,37.42c0-0.12,0.06-0.23,0.18-0.31
			c0.12-0.08,0.26-0.13,0.42-0.13c0.09,0,0.17,0.01,0.24,0.04c0.07,0.02,0.14,0.05,0.19,0.09c0.05,0.04,0.1,0.09,0.13,0.14
			c0.03,0.05,0.05,0.11,0.05,0.17c0,0.06-0.02,0.12-0.05,0.17c-0.03,0.05-0.07,0.1-0.13,0.14c-0.06,0.04-0.12,0.07-0.19,0.09
			c-0.07,0.02-0.15,0.03-0.24,0.03c-0.17,0-0.31-0.04-0.42-0.12C59.38,37.65,59.32,37.55,59.32,37.42 M61,37.42
			c0-0.12,0.06-0.23,0.17-0.31c0.12-0.08,0.26-0.13,0.43-0.13c0.17,0,0.31,0.04,0.43,0.13c0.12,0.09,0.17,0.19,0.17,0.31
			c0,0.12-0.06,0.23-0.17,0.31c-0.12,0.08-0.26,0.12-0.43,0.12c-0.17,0-0.31-0.04-0.43-0.12C61.06,37.65,61,37.55,61,37.42"/>
		<rect x="62.48" y="35.29" class="st0" width="2.62" height="0.8"/>
		<path class="st0" d="M65.01,35.29h1.21v-4.55h1.09v4.91c0.01,0.01,0.01,0.03,0.01,0.04c0,0.11-0.05,0.21-0.16,0.29
			c-0.11,0.08-0.24,0.11-0.39,0.11h-1.76V35.29z"/>
		<path class="st0" d="M72.04,36.03c-0.1,0.02-0.25,0.05-0.47,0.07c-0.21,0.02-0.45,0.04-0.72,0.04c-0.27,0.01-0.55,0.01-0.83,0
			c-0.28-0.01-0.54-0.04-0.78-0.08c-0.23-0.04-0.43-0.1-0.58-0.18c-0.15-0.08-0.23-0.18-0.23-0.31v-1.46c0-0.24,0.06-0.47,0.19-0.68
			c0.13-0.21,0.3-0.4,0.51-0.56c0.22-0.16,0.47-0.28,0.77-0.38c0.29-0.09,0.6-0.14,0.94-0.14h1.67c0.1,0,0.2,0.01,0.29,0.04
			c0.09,0.03,0.17,0.07,0.23,0.11c0.06,0.05,0.12,0.1,0.15,0.17c0.04,0.06,0.06,0.14,0.06,0.21c0,0.26,0.01,0.54,0.02,0.83
			c0.01,0.29,0.02,0.58,0.01,0.88c-0.01,0.29-0.02,0.59-0.05,0.89c-0.03,0.29-0.09,0.57-0.18,0.84c-0.09,0.27-0.21,0.52-0.37,0.75
			c-0.16,0.24-0.36,0.44-0.61,0.62c-0.25,0.18-0.56,0.32-0.92,0.43c-0.37,0.11-0.8,0.18-1.3,0.2v-0.8c0.33-0.01,0.62-0.05,0.85-0.12
			c0.24-0.07,0.43-0.16,0.6-0.28c0.17-0.12,0.3-0.26,0.41-0.41c0.11-0.16,0.2-0.33,0.28-0.51L72.04,36.03z M70.85,35.34
			c0.22,0,0.44-0.01,0.67-0.02c0.22-0.02,0.44-0.04,0.67-0.07c0.02-0.16,0.02-0.34,0.02-0.52c0-0.18,0-0.37-0.01-0.55
			c-0.01-0.18-0.01-0.36-0.02-0.53c-0.01-0.17-0.01-0.34-0.01-0.49l-1.32,0c-0.18,0-0.35,0.02-0.51,0.08
			c-0.16,0.05-0.3,0.12-0.42,0.21c-0.12,0.09-0.21,0.19-0.28,0.3c-0.07,0.12-0.1,0.24-0.1,0.37l0.01,1.13
			c0.14,0.02,0.27,0.04,0.38,0.06c0.11,0.01,0.21,0.02,0.31,0.03c0.1,0.01,0.19,0.01,0.27,0.01c0.09,0,0.18,0,0.28,0H70.85z"/>
		<path class="st0" d="M74.44,36.08v-0.8H78c-0.02-0.37-0.08-0.69-0.18-0.96c-0.1-0.26-0.23-0.47-0.42-0.63
			c-0.22-0.18-0.53-0.31-0.94-0.4c-0.41-0.09-0.94-0.13-1.6-0.12c0-0.15,0-0.28-0.01-0.41c0-0.12-0.01-0.25-0.01-0.39
			c0.42,0,0.8,0.01,1.14,0.04c0.34,0.03,0.65,0.08,0.93,0.14c0.28,0.06,0.52,0.15,0.74,0.25c0.22,0.1,0.41,0.22,0.57,0.36
			c0.28,0.24,0.48,0.53,0.61,0.87c0.13,0.35,0.21,0.76,0.24,1.25h0.78v0.8L74.44,36.08z"/>
		<path class="st0" d="M79.77,35.29h1.2v-4.55h1.09v4.91c0,0.01,0.01,0.03,0.01,0.04c0,0.11-0.05,0.21-0.16,0.29
			c-0.11,0.08-0.24,0.11-0.39,0.11h-1.75V35.29z"/>
		<rect x="83.69" y="30.74" class="st0" width="1.09" height="5.34"/>
		<path class="st0" d="M94.57,36.09h-1.62c-0.17,0-0.31-0.04-0.4-0.13c-0.1-0.09-0.14-0.19-0.14-0.31l-0.01-2.49l-1.31,0
			c-0.18,0-0.35,0.02-0.51,0.08c-0.16,0.05-0.3,0.12-0.42,0.21c-0.12,0.09-0.21,0.19-0.28,0.31c-0.07,0.12-0.1,0.24-0.1,0.37
			l0.01,1.14c0.16,0.01,0.29,0.03,0.41,0.04c0.11,0.01,0.24,0.02,0.37,0.02c0.14,0,0.3-0.01,0.48-0.03
			c0.18-0.02,0.42-0.05,0.72-0.09c0.02,0.15,0.03,0.28,0.05,0.4c0.01,0.12,0.03,0.25,0.05,0.39c-0.29,0.03-0.56,0.06-0.81,0.07
			c-0.25,0.01-0.49,0.02-0.72,0.02c-0.23,0-0.44-0.01-0.65-0.04c-0.21-0.02-0.41-0.05-0.61-0.09c-0.12-0.02-0.22-0.06-0.29-0.13
			c-0.07-0.07-0.11-0.16-0.11-0.25v-1.46c0-0.24,0.06-0.47,0.18-0.68c0.12-0.21,0.29-0.4,0.51-0.56c0.22-0.16,0.47-0.28,0.77-0.38
			c0.29-0.09,0.6-0.14,0.94-0.14h1.67c0.09,0,0.18,0.01,0.27,0.04c0.09,0.03,0.16,0.07,0.23,0.11c0.07,0.05,0.12,0.1,0.16,0.16
			c0.04,0.06,0.06,0.13,0.07,0.19l0.02,2.42h1.07V36.09z M90,31.22c0-0.12,0.06-0.23,0.17-0.31c0.11-0.09,0.25-0.13,0.42-0.13
			c0.08,0,0.16,0.01,0.24,0.04c0.07,0.02,0.14,0.05,0.19,0.09c0.05,0.04,0.1,0.09,0.13,0.14c0.03,0.05,0.05,0.11,0.05,0.17
			c0,0.06-0.01,0.12-0.05,0.17c-0.03,0.05-0.07,0.1-0.13,0.14c-0.06,0.04-0.12,0.07-0.19,0.09c-0.07,0.02-0.15,0.03-0.24,0.03
			c-0.17,0-0.31-0.04-0.42-0.12C90.05,31.45,90,31.34,90,31.22 M91.68,31.22c0-0.12,0.06-0.23,0.17-0.31
			c0.11-0.09,0.26-0.13,0.43-0.13c0.08,0,0.17,0.01,0.24,0.04c0.07,0.02,0.14,0.05,0.19,0.09c0.05,0.04,0.1,0.09,0.13,0.14
			c0.03,0.05,0.05,0.11,0.05,0.17c0,0.06-0.01,0.12-0.05,0.17c-0.03,0.05-0.07,0.1-0.13,0.14c-0.06,0.04-0.12,0.07-0.19,0.09
			c-0.07,0.02-0.15,0.03-0.24,0.03c-0.17,0-0.31-0.04-0.43-0.12C91.74,31.45,91.68,31.34,91.68,31.22"/>
		<polygon class="st0" points="94.46,36.09 94.46,35.29 97.25,35.29 97.07,35.83 		"/>
		<path class="st0" d="M102.66,35.29h1.06v-1.21c0-0.2,0.06-0.41,0.19-0.61c0.12-0.21,0.29-0.39,0.51-0.56
			c0.22-0.16,0.47-0.3,0.76-0.4c0.29-0.1,0.6-0.15,0.93-0.14c0.32,0,0.63,0.01,0.96,0.01c0.32,0,0.64,0.01,0.96,0.01
			c0.07,0,0.14,0.01,0.21,0.03c0.07,0.02,0.13,0.05,0.17,0.08c0.05,0.04,0.09,0.08,0.12,0.13c0.03,0.05,0.04,0.1,0.04,0.15v2.87
			c0,0.13-0.05,0.23-0.14,0.32c-0.1,0.09-0.23,0.13-0.4,0.13h-5.36V35.29z M104.82,35.29h2.64v-2.12c-0.11,0-0.22,0-0.33,0
			c-0.11,0-0.22,0-0.32,0c-0.1,0-0.2,0-0.29,0h-0.21c-0.11,0-0.17,0-0.19,0h-0.04c-0.16,0-0.31,0.03-0.47,0.08
			c-0.15,0.05-0.29,0.12-0.41,0.21c-0.12,0.08-0.21,0.18-0.28,0.29c-0.07,0.11-0.11,0.22-0.11,0.34V35.29z"/>
		<path class="st0" d="M112.13,36.09h-1.78c-0.15,0-0.28-0.04-0.39-0.11c-0.11-0.08-0.16-0.17-0.16-0.29c0-0.01,0-0.03,0-0.04v-4.91
			h1.1v4.55h1.23V36.09z"/>
		<rect x="112.01" y="35.29" class="st0" width="2.62" height="0.8"/>
		<path class="st0" d="M115.59,32.39c0.11,0.01,0.2,0.01,0.29,0.01c0.08,0,0.18,0,0.31,0.01c0.29,0.01,0.59,0.02,0.91,0.04
			c0.32,0.02,0.63,0.05,0.94,0.11c0.31,0.06,0.61,0.15,0.89,0.27c0.28,0.12,0.53,0.28,0.75,0.5c0.22,0.21,0.39,0.47,0.53,0.79
			c0.14,0.32,0.22,0.71,0.24,1.17h1.01v0.8h-6.95v-0.8h4.84c-0.03-0.35-0.1-0.64-0.22-0.88c-0.12-0.24-0.27-0.43-0.46-0.59
			c-0.18-0.15-0.39-0.27-0.62-0.36c-0.23-0.09-0.47-0.15-0.72-0.19c-0.25-0.04-0.5-0.07-0.75-0.07c-0.25-0.01-0.48-0.02-0.7-0.02
			c-0.07,0-0.13,0-0.2,0c-0.06,0-0.13,0-0.18,0L115.59,32.39z M116.67,37.42c0-0.12,0.06-0.23,0.17-0.31
			c0.11-0.08,0.26-0.13,0.43-0.13c0.17,0,0.32,0.04,0.43,0.13c0.12,0.09,0.18,0.19,0.18,0.31c0,0.12-0.06,0.23-0.18,0.31
			c-0.11,0.08-0.26,0.12-0.43,0.12c-0.17,0-0.31-0.04-0.43-0.12C116.72,37.65,116.67,37.55,116.67,37.42"/>
		<rect x="121.35" y="35.29" class="st0" width="2.62" height="0.8"/>
		<path class="st0" d="M123.88,35.29h1.21v-4.55h1.09v4.91c0,0.01,0.01,0.03,0.01,0.04c0,0.11-0.05,0.21-0.16,0.29
			c-0.11,0.08-0.24,0.11-0.39,0.11h-1.76V35.29z"/>
		<rect x="127.8" y="30.74" class="st0" width="1.09" height="5.34"/>
		<path class="st0" d="M47.06,33.81c0,1.64-0.78,2.46-2.33,2.46c-1.51,0-2.26-0.8-2.26-2.4V31.5h1.09v2.37
			c0.01,1.19,0.51,1.39,1.21,1.46c0.75,0.07,1.28-0.56,1.28-1.41v-3.21h1.02V33.81z"/>
		<path class="st0" d="M98.89,36.09c-1.31,0-1.96-0.62-1.96-1.85c0-1.2,0.64-1.8,1.91-1.8h1.46v0.87h-1.47
			c-0.95,0.01-1.1,0.41-1.16,0.96c-0.06,0.6,0.44,1.02,1.12,1.02h3.96v0.81H98.89z"/>
		<path class="st0" d="M97.64,34.71c0,0.91-0.48,1.37-1.44,1.37h-2.85c1.52-0.02,2.97-0.27,3.72-0.66
			C97.57,35.16,97.64,34.71,97.64,34.71"/>
		<rect x="100.35" y="32.44" class="st0" width="0.3" height="0.86"/>
		<rect x="100.7" y="32.44" class="st0" width="0.21" height="0.86"/>
		<rect x="101.01" y="32.44" class="st0" width="0.14" height="0.86"/>
		<rect x="101.26" y="32.44" class="st0" width="0.07" height="0.87"/>
	</g>
	<g>
		<path class="st1" d="M115.37,24.82h-0.58c0,0-0.35,1.11-0.64,1.33c0,0-0.51,0.54-0.72,0.65c0,0-0.1,0.22,0.23,0.19
			c0,0,0.57-0.11,0.77-0.08c0,0,0.85,0.01,1.04,0.07c0,0,0.28,0.03,0.4-0.08c0,0,0.18-0.13,0.03-0.28c0,0-0.57,0-0.68-0.32
			c0,0-0.18-0.3-0.04-0.72L115.37,24.82z"/>
		<path class="st2" d="M118.56,26.97h-0.08c-0.09-0.01-0.14-0.12-0.14-0.12l0-0.02l0-0.01c0.11-0.3,0.36-0.34,0.4-0.35
			c0.54-0.23,0.3-0.85,0.3-0.87l-0.32-0.82h1.32l0.64,1.51c0.18,0.2,0.38,0.24,0.52,0.24c0.07,0,0.12-0.01,0.12-0.01l0.01,0
			l0.01,0.01c0.07,0.05,0.11,0.11,0.1,0.17c-0.02,0.15-0.24,0.24-0.27,0.25h-0.01c-0.14,0.01-0.74-0.03-0.75-0.03
			c-0.06-0.02-0.2-0.02-0.41-0.02c-0.41,0-0.97,0.03-1.03,0.03C118.91,26.96,118.72,26.97,118.56,26.97"/>
		<path class="st3" d="M119.49,23.41h-1.18l-1.25-2.93l-1.23,2.96h-0.63l1.33-3.43c0,0,0.07-0.14-0.09-0.35c0,0-0.11-0.32,0.32-0.37
			c0,0,0.39-0.1,0.88-0.51c0,0,0.17-0.04,0.24,0.29l0.07,0.39c0,0,0.04,0.32,0.18,0.59L119.49,23.41z"/>
		<path class="st2" d="M115.86,23.47h-0.7L116.5,20c0-0.01,0.06-0.13-0.08-0.32l-0.01-0.01c0-0.01-0.05-0.13,0.03-0.25
			c0.05-0.09,0.16-0.15,0.32-0.16c0,0,0.39-0.11,0.86-0.51l0.01-0.01c0.01,0,0.2-0.04,0.28,0.32l0.06,0.39
			c0,0.01,0.04,0.32,0.18,0.59l1.38,3.4h-1.25l-1.23-2.88L115.86,23.47z"/>
		<rect x="117.6" y="23.63" class="st2" width="1.97" height="0.05"/>
		<rect x="117.76" y="23.75" class="st2" width="1.87" height="0.05"/>
		<rect x="117.91" y="23.85" class="st2" width="1.76" height="0.05"/>
		<rect x="117.95" y="23.95" class="st2" width="1.76" height="0.05"/>
		<rect x="118.03" y="24.05" class="st2" width="1.73" height="0.05"/>
		<rect x="118.05" y="24.14" class="st2" width="1.74" height="0.05"/>
		<rect x="118.11" y="24.23" class="st2" width="1.72" height="0.04"/>
		<rect x="118.14" y="24.33" class="st2" width="1.72" height="0.05"/>
		<rect x="118.17" y="24.43" class="st2" width="1.74" height="0.05"/>
		<rect x="118.21" y="24.52" class="st2" width="1.74" height="0.05"/>
		<rect x="118.25" y="24.61" class="st2" width="1.74" height="0.05"/>
		<rect x="116.88" y="23.22" class="st2" width="0.61" height="0.04"/>
		<rect x="116.78" y="23.31" class="st2" width="0.79" height="0.05"/>
		<rect x="116.67" y="23.41" class="st2" width="0.97" height="0.05"/>
		<rect x="116.58" y="23.51" class="st2" width="1.14" height="0.05"/>
		<rect x="116.46" y="23.63" class="st2" width="0.46" height="0.05"/>
		<rect x="116.48" y="23.75" class="st2" width="0.28" height="0.05"/>
		<rect x="115.52" y="23.63" class="st2" width="0.05" height="0.99"/>
		<rect x="115.42" y="23.64" class="st2" width="0.05" height="0.98"/>
		<rect x="115.34" y="23.64" class="st2" width="0.05" height="0.98"/>
		<rect x="115.24" y="23.63" class="st2" width="0.04" height="0.99"/>
		<rect x="115.13" y="23.82" class="st2" width="0.05" height="0.8"/>
		<rect x="115.04" y="24.03" class="st2" width="0.05" height="0.59"/>
		<rect x="114.95" y="24.23" class="st2" width="0.04" height="0.39"/>
		<rect x="115.61" y="23.64" class="st2" width="0.05" height="0.98"/>
		<rect x="115.71" y="23.64" class="st2" width="0.05" height="0.98"/>
		<rect x="115.8" y="23.63" class="st2" width="0.04" height="0.99"/>
		<rect x="115.9" y="23.63" class="st2" width="0.05" height="0.99"/>
		<rect x="115.99" y="23.64" class="st2" width="0.05" height="0.98"/>
		<rect x="116.08" y="23.64" class="st2" width="0.05" height="0.98"/>
		<rect x="116.18" y="23.64" class="st2" width="0.05" height="0.77"/>
		<rect x="116.85" y="25.01" class="st2" width="0.22" height="0.05"/>
		<rect x="116.96" y="24.91" class="st2" width="0.22" height="0.04"/>
		<rect x="117.04" y="24.81" class="st2" width="0.26" height="0.05"/>
		<rect x="117.12" y="24.71" class="st2" width="0.22" height="0.05"/>
		<rect x="117.2" y="24.59" class="st2" width="0.17" height="0.05"/>
		<rect x="116.74" y="24.91" class="st2" width="0.08" height="0.05"/>
		<rect x="116.65" y="24.78" class="st2" width="0.24" height="0.05"/>
		<rect x="116.77" y="24.7" class="st2" width="0.17" height="0.05"/>
		<rect x="116.88" y="24.59" class="st2" width="0.15" height="0.05"/>
		<rect x="116.93" y="24.49" class="st2" width="0.18" height="0.05"/>
		<rect x="116.43" y="24.68" class="st2" width="0.16" height="0.05"/>
		<rect x="116.5" y="24.59" class="st2" width="0.2" height="0.05"/>
		<rect x="116.55" y="24.48" class="st2" width="0.18" height="0.05"/>
		<rect x="116.59" y="24.39" class="st2" width="0.19" height="0.05"/>
		<rect x="116.18" y="24.58" class="st2" width="0.19" height="0.05"/>
		<rect x="116.2" y="24.47" class="st2" width="0.2" height="0.04"/>
		<rect x="116.18" y="24.38" class="st2" width="0.24" height="0.05"/>
		<rect x="116.29" y="24.28" class="st2" width="0.27" height="0.05"/>
		<rect x="116.31" y="24.17" class="st2" width="0.24" height="0.05"/>
		<rect x="117.42" y="23.77" class="st2" width="0.05" height="0.84"/>
		<rect x="117.32" y="23.69" class="st2" width="0.05" height="0.73"/>
		<rect x="117.23" y="23.71" class="st2" width="0.05" height="0.63"/>
		<rect x="117.13" y="23.69" class="st2" width="0.05" height="0.6"/>
		<rect x="117.03" y="23.71" class="st2" width="0.06" height="0.48"/>
		<rect x="116.94" y="23.77" class="st2" width="0.04" height="0.43"/>
		<rect x="116.83" y="23.85" class="st2" width="0.05" height="0.24"/>
		<rect x="117.53" y="23.78" class="st2" width="0.05" height="0.47"/>
		<rect x="117.64" y="23.84" class="st2" width="0.05" height="0.5"/>
		<rect x="117.74" y="23.9" class="st2" width="0.05" height="0.29"/>
		<rect x="117.84" y="24.04" class="st2" width="0.05" height="0.27"/>
		<rect x="117.91" y="24.17" class="st2" width="0.05" height="0.36"/>
		<rect x="118.03" y="24.38" class="st2" width="0.05" height="0.28"/>
		<rect x="117.7" y="24.33" class="st2" width="0.04" height="0.28"/>
		<rect x="117.5" y="24.51" class="st2" width="0.05" height="0.29"/>
		<rect x="117.6" y="24.61" class="st2" width="0.05" height="0.3"/>
		<rect x="117.69" y="24.79" class="st2" width="0.05" height="0.1"/>
		<rect x="117.82" y="24.53" class="st2" width="0.05" height="0.19"/>
		<rect x="117.89" y="24.67" class="st2" width="0.05" height="0.1"/>
		<rect x="117.39" y="24.8" class="st2" width="0.05" height="0.21"/>
		<rect x="117.46" y="24.92" class="st2" width="0.05" height="0.07"/>
		<rect x="117.29" y="24.79" class="st2" width="0.05" height="0.18"/>
		<rect x="116.75" y="24.28" class="st2" width="0.22" height="0.05"/>
		<rect x="116.75" y="24.17" class="st2" width="0.22" height="0.05"/>
		<rect x="116.69" y="23.83" class="st2" width="0.05" height="0.21"/>
		<rect x="116.59" y="23.89" class="st2" width="0.05" height="0.18"/>
		<rect x="116.39" y="23.82" class="st2" width="0.04" height="0.27"/>
		<rect x="116.28" y="23.73" class="st2" width="0.05" height="0.57"/>
		<rect x="116.48" y="23.85" class="st2" width="0.05" height="0.19"/>
		<rect x="114.86" y="24.45" class="st2" width="0.05" height="0.17"/>
		<path class="st2" d="M1.07,23.57v-4.83h0.97v4.28c0,0.41,0.02,0.8,0.07,1.19c0.05,0.39,0.14,0.73,0.28,1.04
			c0.14,0.31,0.33,0.55,0.59,0.74c0.26,0.19,0.6,0.28,1.02,0.28c0.42,0,0.76-0.1,1.02-0.29c0.26-0.19,0.46-0.44,0.6-0.74
			c0.14-0.3,0.23-0.65,0.28-1.04c0.04-0.39,0.06-0.78,0.06-1.18v-4.28h0.97v4.83c0,1.18-0.24,2.1-0.73,2.75
			C5.7,26.97,4.97,27.3,3.99,27.3c-0.98,0-1.71-0.32-2.2-0.98C1.31,25.67,1.07,24.75,1.07,23.57"/>
		<path class="st2" d="M12.55,27.13h-0.91v-3.24c0-0.63-0.1-1.09-0.3-1.37c-0.2-0.28-0.53-0.43-0.99-0.43
			c-0.66,0-1.11,0.26-1.35,0.77v4.27H8.1v-5.87h0.7l0.1,0.62c0.47-0.49,1.02-0.74,1.63-0.74c1.34,0,2.02,0.92,2.02,2.76V27.13z"/>
		<path class="st2" d="M14.64,19.94h-0.91v-1.2h0.91V19.94z M14.64,27.13h-0.91v-5.87h0.91V27.13z"/>
		<polygon class="st2" points="20.13,21.26 18.25,27.13 17.24,27.13 15.35,21.26 16.36,21.26 17.74,25.95 19.11,21.26 		"/>
		<path class="st2" d="M24.95,24.19h-3.58c0.11,1.4,0.73,2.1,1.86,2.1c0.5,0,0.98-0.11,1.42-0.35l0.12,0.85
			c-0.59,0.3-1.14,0.46-1.65,0.46c-0.42,0-0.79-0.08-1.12-0.24c-0.33-0.16-0.61-0.38-0.84-0.65c-0.23-0.28-0.4-0.6-0.53-0.98
			c-0.12-0.38-0.18-0.79-0.18-1.23c0-0.42,0.06-0.82,0.17-1.19c0.11-0.37,0.28-0.69,0.49-0.95c0.21-0.27,0.46-0.48,0.76-0.64
			c0.3-0.15,0.63-0.23,1-0.23c0.31,0,0.6,0.06,0.87,0.17c0.26,0.11,0.49,0.28,0.67,0.49c0.19,0.22,0.33,0.48,0.43,0.78
			c0.11,0.31,0.16,0.65,0.16,1.04C24.99,23.84,24.98,24.03,24.95,24.19 M22.84,22.1c-0.73,0-1.2,0.45-1.39,1.35h2.6
			c0-0.43-0.1-0.76-0.3-1C23.55,22.21,23.25,22.1,22.84,22.1"/>
		<path class="st2" d="M28.52,21.04l-0.2,1.19h-0.31c-0.1,0-0.21,0.02-0.32,0.06c-0.11,0.05-0.22,0.1-0.33,0.18
			c-0.1,0.07-0.2,0.15-0.29,0.24c-0.09,0.09-0.15,0.18-0.19,0.28v4.15h-0.97v-5.87h0.75l0.11,0.97c0.31-0.42,0.59-0.72,0.84-0.91
			c0.25-0.19,0.53-0.28,0.83-0.28H28.52z"/>
		<path class="st2" d="M30.55,27.25c-0.72,0-1.28-0.17-1.69-0.52l0.11-1.04c0.13,0.14,0.34,0.28,0.62,0.41
			c0.28,0.13,0.58,0.19,0.92,0.19c0.66,0,0.99-0.24,0.99-0.73c0-0.44-0.33-0.76-0.99-0.97c-0.2-0.06-0.39-0.12-0.57-0.2
			c-0.18-0.08-0.34-0.18-0.48-0.3c-0.14-0.13-0.26-0.28-0.35-0.47c-0.09-0.19-0.14-0.43-0.16-0.72c0-0.5,0.15-0.92,0.45-1.26
			c0.3-0.34,0.77-0.5,1.4-0.5c0.45,0,0.9,0.13,1.34,0.38l-0.11,0.98c-0.35-0.35-0.75-0.53-1.21-0.53c-0.64,0-0.96,0.26-0.96,0.79
			c0,0.13,0.02,0.24,0.05,0.33c0.03,0.09,0.09,0.17,0.18,0.23c0.09,0.07,0.21,0.14,0.35,0.2c0.15,0.06,0.34,0.14,0.57,0.22
			c0.14,0.05,0.29,0.11,0.46,0.2c0.17,0.09,0.32,0.2,0.46,0.33c0.14,0.14,0.26,0.3,0.35,0.5c0.1,0.2,0.14,0.44,0.14,0.72
			c0,0.19-0.03,0.39-0.08,0.6c-0.05,0.21-0.15,0.4-0.29,0.56c-0.14,0.17-0.34,0.31-0.58,0.42C31.24,27.19,30.93,27.25,30.55,27.25"
			/>
		<path class="st2" d="M34.24,19.94h-0.91v-1.2h0.91V19.94z M34.24,27.13h-0.91v-5.87h0.91V27.13z"/>
		<path class="st2" d="M38.06,26.39l-0.07,0.86h-0.81c-0.44,0-0.76-0.14-0.97-0.41c-0.21-0.27-0.32-0.61-0.32-1V22.1h-0.85
			l0.08-0.84h0.77v-1.45l0.91-0.11v1.56h1.3v0.84h-1.3v3.09c0,0.28,0.01,0.5,0.02,0.66c0.02,0.16,0.05,0.28,0.12,0.36
			c0.06,0.08,0.17,0.13,0.31,0.15c0.14,0.02,0.34,0.03,0.6,0.03H38.06z"/>
		<path class="st2" d="M43.03,24.19h-3.58c0.11,1.4,0.73,2.1,1.86,2.1c0.5,0,0.98-0.11,1.42-0.35l0.12,0.85
			c-0.58,0.3-1.14,0.46-1.65,0.46c-0.42,0-0.79-0.08-1.13-0.24c-0.33-0.16-0.61-0.38-0.84-0.65c-0.23-0.28-0.4-0.6-0.52-0.98
			c-0.12-0.38-0.18-0.79-0.18-1.23c0-0.43,0.06-0.82,0.17-1.19c0.12-0.37,0.28-0.69,0.48-0.95c0.21-0.27,0.46-0.48,0.76-0.63
			c0.3-0.16,0.63-0.23,1-0.23c0.32,0,0.6,0.06,0.87,0.17c0.26,0.11,0.49,0.28,0.67,0.49c0.18,0.22,0.33,0.48,0.43,0.78
			c0.1,0.31,0.16,0.65,0.16,1.04C43.07,23.84,43.06,24.03,43.03,24.19 M40.92,22.1c-0.73,0-1.2,0.45-1.39,1.35h2.6
			c0-0.43-0.1-0.76-0.3-1C41.63,22.21,41.32,22.1,40.92,22.1 M41.73,19.22l-1.89,0.77v-0.49l1.89-1.14V19.22z"/>
		<rect x="46.45" y="18.74" class="st2" width="0.97" height="8.39"/>
		<path class="st2" d="M53.2,27.13h-0.91v-3.24c0-0.63-0.1-1.09-0.3-1.37c-0.2-0.28-0.53-0.43-0.99-0.43
			c-0.66,0-1.11,0.26-1.35,0.77v4.27h-0.91v-5.87h0.7l0.1,0.62c0.47-0.49,1.02-0.74,1.63-0.74c1.34,0,2.02,0.92,2.02,2.76V27.13z"/>
		<path class="st2" d="M56.89,26.39l-0.07,0.86H56c-0.44,0-0.76-0.14-0.97-0.41c-0.21-0.27-0.32-0.61-0.32-1V22.1h-0.85l0.08-0.84
			h0.77v-1.45l0.91-0.11v1.56h1.3v0.84h-1.3v3.09c0,0.28,0.01,0.5,0.02,0.66c0.02,0.16,0.05,0.28,0.12,0.36
			c0.07,0.08,0.17,0.13,0.31,0.15c0.14,0.02,0.34,0.03,0.6,0.03H56.89z"/>
		<path class="st2" d="M61.86,24.19h-3.58c0.11,1.4,0.73,2.1,1.85,2.1c0.5,0,0.98-0.11,1.42-0.35l0.12,0.85
			c-0.59,0.3-1.14,0.46-1.65,0.46c-0.42,0-0.79-0.08-1.13-0.24c-0.33-0.16-0.62-0.38-0.84-0.65c-0.23-0.28-0.4-0.6-0.53-0.98
			c-0.12-0.38-0.18-0.79-0.18-1.23c0-0.42,0.06-0.82,0.17-1.19c0.11-0.37,0.27-0.69,0.48-0.95c0.21-0.27,0.46-0.48,0.76-0.64
			c0.3-0.15,0.63-0.23,1-0.23c0.32,0,0.61,0.06,0.87,0.17c0.26,0.11,0.49,0.28,0.67,0.49c0.18,0.22,0.33,0.48,0.43,0.78
			c0.1,0.31,0.16,0.65,0.16,1.04C61.91,23.84,61.89,24.03,61.86,24.19 M59.76,22.1c-0.73,0-1.2,0.45-1.39,1.35h2.6
			c0-0.43-0.1-0.76-0.3-1C60.46,22.21,60.16,22.1,59.76,22.1"/>
		<path class="st2" d="M65.43,21.04l-0.2,1.19h-0.31c-0.1,0-0.21,0.02-0.32,0.06c-0.12,0.05-0.22,0.1-0.33,0.18
			c-0.1,0.07-0.2,0.15-0.29,0.24c-0.09,0.09-0.15,0.18-0.19,0.28v4.15h-0.97v-5.87h0.75l0.11,0.97c0.31-0.42,0.59-0.72,0.84-0.91
			c0.25-0.19,0.53-0.28,0.83-0.28H65.43z"/>
		<path class="st2" d="M70.52,27.13h-0.91v-3.24c0-0.63-0.1-1.09-0.3-1.37c-0.2-0.28-0.53-0.43-0.99-0.43
			c-0.66,0-1.11,0.26-1.35,0.77v4.27h-0.91v-5.87h0.71l0.1,0.62c0.47-0.49,1.01-0.74,1.63-0.74c1.35,0,2.02,0.92,2.02,2.76V27.13z"
			/>
		<path class="st2" d="M75.85,26.39l-0.14,0.86h-0.07c-0.2,0-0.37-0.01-0.5-0.04c-0.13-0.03-0.25-0.08-0.34-0.15
			c-0.1-0.07-0.17-0.16-0.24-0.27c-0.06-0.11-0.12-0.25-0.19-0.41c-0.42,0.57-0.92,0.86-1.51,0.86c-0.46,0-0.83-0.16-1.11-0.47
			c-0.27-0.31-0.41-0.72-0.41-1.23c0-0.41,0.09-0.74,0.28-1.01c0.18-0.26,0.42-0.48,0.71-0.63c0.29-0.16,0.6-0.27,0.95-0.34
			c0.35-0.06,0.69-0.1,1.02-0.11c0-0.53-0.08-0.89-0.26-1.07c-0.17-0.19-0.45-0.28-0.82-0.28c-0.43,0-0.86,0.18-1.3,0.53l-0.13-0.88
			c0.45-0.41,1-0.61,1.68-0.61c0.31,0,0.59,0.05,0.81,0.15c0.22,0.1,0.4,0.26,0.54,0.48c0.14,0.22,0.24,0.51,0.3,0.87
			c0.06,0.36,0.1,0.8,0.1,1.32v1.2c0,0.46,0.03,0.78,0.1,0.96c0.07,0.18,0.22,0.27,0.47,0.27H75.85z M74.28,25.6v-1.4
			c-0.72,0.03-1.25,0.14-1.56,0.34c-0.31,0.2-0.47,0.51-0.47,0.95c0,0.6,0.26,0.9,0.77,0.9c0.24,0,0.48-0.07,0.7-0.22
			C73.95,26.03,74.13,25.84,74.28,25.6"/>
		<path class="st2" d="M79.03,26.39l-0.07,0.86h-0.82c-0.44,0-0.76-0.14-0.97-0.41c-0.21-0.27-0.32-0.61-0.32-1V22.1h-0.85
			l0.08-0.84h0.77v-1.45l0.91-0.11v1.56h1.3v0.84h-1.3v3.09c0,0.28,0.01,0.5,0.02,0.66c0.02,0.16,0.05,0.28,0.12,0.36
			c0.07,0.08,0.17,0.13,0.31,0.15c0.14,0.02,0.34,0.03,0.59,0.03H79.03z"/>
		<path class="st2" d="M80.75,19.94h-0.91v-1.2h0.91V19.94z M80.75,27.13h-0.91v-5.87h0.91V27.13z"/>
		<path class="st2" d="M85.93,26.39c-0.44,0.57-1.03,0.86-1.79,0.86c-0.38,0-0.72-0.08-1.02-0.23c-0.3-0.16-0.56-0.37-0.77-0.64
			c-0.21-0.27-0.37-0.59-0.48-0.97c-0.11-0.38-0.17-0.78-0.17-1.21c0-0.44,0.06-0.85,0.17-1.22c0.11-0.37,0.28-0.69,0.49-0.96
			c0.21-0.27,0.47-0.49,0.77-0.64c0.3-0.16,0.64-0.23,1.02-0.23c0.38,0,0.72,0.08,1.02,0.23c0.3,0.16,0.56,0.37,0.77,0.65
			c0.21,0.28,0.37,0.6,0.49,0.97c0.11,0.37,0.17,0.77,0.17,1.21C86.59,25.07,86.37,25.8,85.93,26.39 M85.26,22.65
			c-0.26-0.37-0.63-0.55-1.12-0.55c-0.48,0-0.86,0.18-1.12,0.54c-0.27,0.36-0.4,0.88-0.4,1.55c0,0.67,0.13,1.19,0.4,1.55
			c0.27,0.36,0.64,0.54,1.12,0.54c0.49,0,0.87-0.19,1.13-0.56c0.26-0.37,0.39-0.88,0.39-1.53C85.66,23.53,85.53,23.01,85.26,22.65"
			/>
		<path class="st2" d="M91.99,27.13h-0.91v-3.24c0-0.63-0.1-1.09-0.3-1.37c-0.2-0.28-0.53-0.43-0.99-0.43
			c-0.66,0-1.11,0.26-1.35,0.77v4.27h-0.91v-5.87h0.7l0.1,0.62c0.47-0.49,1.02-0.74,1.63-0.74c1.35,0,2.02,0.92,2.02,2.76V27.13z"/>
		<path class="st2" d="M97.31,26.39l-0.14,0.86H97.1c-0.2,0-0.37-0.01-0.5-0.04c-0.14-0.03-0.25-0.08-0.34-0.15
			c-0.1-0.07-0.17-0.16-0.24-0.27c-0.06-0.11-0.12-0.25-0.18-0.41c-0.42,0.57-0.92,0.86-1.51,0.86c-0.46,0-0.83-0.16-1.11-0.47
			c-0.28-0.31-0.41-0.72-0.41-1.23c0-0.41,0.09-0.74,0.28-1.01c0.19-0.26,0.42-0.48,0.71-0.63c0.29-0.16,0.61-0.27,0.95-0.34
			c0.35-0.06,0.69-0.1,1.02-0.11c0-0.53-0.08-0.89-0.26-1.07c-0.17-0.19-0.45-0.28-0.82-0.28c-0.43,0-0.86,0.18-1.3,0.53l-0.13-0.88
			c0.44-0.41,1-0.61,1.67-0.61c0.32,0,0.58,0.05,0.81,0.15c0.22,0.1,0.4,0.26,0.54,0.48c0.14,0.22,0.24,0.51,0.3,0.87
			c0.06,0.36,0.09,0.8,0.09,1.32v1.2c0,0.46,0.03,0.78,0.1,0.96c0.07,0.18,0.22,0.27,0.46,0.27H97.31z M95.75,25.6v-1.4
			c-0.72,0.03-1.24,0.14-1.56,0.34c-0.31,0.2-0.47,0.51-0.47,0.95c0,0.6,0.25,0.9,0.76,0.9c0.24,0,0.48-0.07,0.7-0.22
			C95.41,26.03,95.6,25.84,95.75,25.6"/>
		<path class="st2" d="M99.7,26.39l-0.13,0.86h-0.29c-0.44,0-0.77-0.13-0.97-0.4C98.1,26.58,98,26.24,98,25.84v-7.7h0.91v7.07
			c0,0.25,0.01,0.45,0.02,0.61c0.02,0.16,0.05,0.28,0.11,0.36c0.05,0.08,0.13,0.14,0.24,0.17C99.38,26.37,99.52,26.39,99.7,26.39"/>
		<path class="st2" d="M104.55,24.19h-3.58c0.11,1.4,0.73,2.1,1.86,2.1c0.5,0,0.98-0.11,1.42-0.35l0.12,0.85
			c-0.59,0.3-1.14,0.46-1.65,0.46c-0.42,0-0.79-0.08-1.12-0.24c-0.33-0.16-0.61-0.38-0.84-0.65c-0.23-0.28-0.4-0.6-0.52-0.98
			c-0.12-0.38-0.18-0.79-0.18-1.23c0-0.42,0.06-0.82,0.17-1.19c0.11-0.37,0.28-0.69,0.48-0.95c0.21-0.27,0.46-0.48,0.76-0.64
			c0.3-0.15,0.63-0.23,1-0.23c0.32,0,0.61,0.06,0.87,0.17c0.26,0.11,0.49,0.28,0.67,0.49c0.18,0.22,0.33,0.48,0.43,0.78
			c0.1,0.31,0.16,0.65,0.16,1.04C104.59,23.84,104.57,24.03,104.55,24.19 M102.44,22.1c-0.73,0-1.2,0.45-1.39,1.35h2.6
			c0-0.43-0.1-0.76-0.3-1C103.14,22.21,102.84,22.1,102.44,22.1"/>
		<path class="st2" d="M112.15,27.13h-0.81l-0.1-0.74c-0.08,0.13-0.18,0.26-0.31,0.36c-0.13,0.1-0.26,0.19-0.39,0.27
			c-0.14,0.07-0.28,0.13-0.42,0.17c-0.14,0.04-0.27,0.06-0.39,0.06c-0.32,0-0.61-0.08-0.89-0.24c-0.28-0.16-0.51-0.38-0.72-0.65
			c-0.2-0.28-0.36-0.6-0.47-0.97c-0.12-0.37-0.17-0.77-0.17-1.19c0-0.41,0.05-0.8,0.16-1.17c0.11-0.37,0.26-0.7,0.46-0.98
			c0.2-0.28,0.44-0.5,0.71-0.67c0.27-0.16,0.58-0.25,0.92-0.25c0.67,0,1.17,0.25,1.51,0.74v-3.74h0.91V27.13z M109.8,22.1
			c-0.21,0-0.41,0.05-0.58,0.16c-0.17,0.11-0.32,0.25-0.44,0.43c-0.12,0.19-0.21,0.41-0.28,0.66c-0.06,0.26-0.1,0.54-0.1,0.85
			c0,0.29,0.03,0.56,0.1,0.81c0.06,0.25,0.16,0.48,0.27,0.66c0.12,0.19,0.26,0.34,0.44,0.45c0.17,0.11,0.37,0.17,0.59,0.17
			c0.2,0,0.4-0.04,0.58-0.13c0.19-0.08,0.35-0.21,0.5-0.38c0.14-0.17,0.26-0.39,0.34-0.65c0.09-0.26,0.13-0.56,0.13-0.9
			c0-0.34-0.04-0.63-0.13-0.9c-0.09-0.26-0.2-0.49-0.34-0.67c-0.15-0.18-0.31-0.32-0.5-0.42C110.18,22.14,110,22.1,109.8,22.1"/>
		<polygon class="st2" points="114.18,18.14 114,21.74 113.35,21.74 113.17,18.14 		"/>
		<path class="st2" d="M123.97,30.13c-0.39,0-0.73-0.05-1.02-0.15c-0.29-0.09-0.53-0.22-0.72-0.39c-0.19-0.16-0.33-0.35-0.43-0.57
			c-0.1-0.21-0.14-0.44-0.14-0.67c0-0.62,0.29-1.06,0.88-1.32c-0.33-0.19-0.5-0.44-0.5-0.74c0-0.14,0.05-0.28,0.13-0.45
			c0.09-0.16,0.24-0.3,0.45-0.43c-0.57-0.49-0.86-1.13-0.86-1.92c0-0.34,0.04-0.65,0.14-0.94c0.09-0.29,0.22-0.54,0.39-0.75
			c0.17-0.21,0.38-0.38,0.64-0.5c0.25-0.12,0.54-0.18,0.85-0.18c0.44,0,0.86,0.14,1.26,0.43c0.35-0.22,0.75-0.33,1.2-0.33h0.08
			l-0.11,0.72h-0.23c-0.21,0-0.4,0.03-0.58,0.08c0.3,0.43,0.45,0.9,0.45,1.4c0,0.31-0.05,0.61-0.14,0.89
			c-0.09,0.28-0.23,0.53-0.4,0.74c-0.17,0.22-0.38,0.39-0.62,0.52c-0.25,0.13-0.52,0.19-0.83,0.19c-0.26,0-0.5-0.04-0.71-0.11
			c-0.16,0.11-0.24,0.23-0.24,0.36c0,0.07,0.02,0.13,0.05,0.19c0.04,0.05,0.11,0.1,0.22,0.14c0.11,0.04,0.27,0.08,0.46,0.12
			c0.2,0.04,0.46,0.1,0.79,0.18c0.22,0.05,0.45,0.11,0.69,0.18c0.23,0.07,0.45,0.17,0.64,0.29c0.19,0.12,0.35,0.27,0.48,0.46
			c0.13,0.19,0.2,0.42,0.21,0.7c0,0.25-0.06,0.48-0.17,0.71c-0.11,0.22-0.28,0.42-0.49,0.59c-0.21,0.17-0.47,0.3-0.78,0.4
			C124.7,30.08,124.36,30.13,123.97,30.13 M124.21,27.44c-0.11,0-0.41-0.05-0.9-0.14c-0.23,0.08-0.42,0.22-0.56,0.42
			c-0.15,0.2-0.22,0.4-0.22,0.61c0,0.28,0.13,0.51,0.4,0.69c0.26,0.18,0.62,0.27,1.09,0.27c0.48,0,0.86-0.09,1.13-0.28
			c0.27-0.19,0.4-0.41,0.4-0.65C125.54,27.94,125.1,27.63,124.21,27.44 M123.79,22c-0.37,0-0.66,0.13-0.86,0.4
			c-0.2,0.27-0.3,0.62-0.3,1.06c0,0.45,0.11,0.81,0.33,1.08c0.22,0.27,0.5,0.4,0.85,0.4c0.36,0,0.65-0.14,0.86-0.43
			c0.21-0.29,0.31-0.65,0.31-1.09c0-0.46-0.11-0.8-0.32-1.05C124.44,22.12,124.16,22,123.79,22"/>
		<path class="st2" d="M131.19,26.39l-0.14,0.86h-0.07c-0.2,0-0.37-0.01-0.51-0.04c-0.13-0.03-0.25-0.08-0.34-0.15
			c-0.1-0.07-0.17-0.16-0.24-0.27c-0.06-0.11-0.13-0.25-0.19-0.41c-0.41,0.57-0.92,0.86-1.51,0.86c-0.46,0-0.83-0.16-1.11-0.47
			c-0.28-0.31-0.41-0.72-0.41-1.23c0-0.41,0.09-0.74,0.28-1.01c0.18-0.26,0.42-0.48,0.71-0.63c0.28-0.16,0.6-0.27,0.95-0.34
			c0.35-0.06,0.69-0.1,1.02-0.11c0-0.53-0.09-0.89-0.26-1.07c-0.17-0.19-0.45-0.28-0.82-0.28c-0.43,0-0.87,0.18-1.3,0.53l-0.13-0.88
			c0.44-0.41,1-0.61,1.67-0.61c0.32,0,0.59,0.05,0.81,0.15c0.22,0.1,0.4,0.26,0.54,0.48c0.14,0.22,0.24,0.51,0.3,0.87
			c0.07,0.36,0.1,0.8,0.1,1.32v1.2c0,0.46,0.03,0.78,0.1,0.96c0.07,0.18,0.22,0.27,0.46,0.27H131.19z M129.62,25.6v-1.4
			c-0.73,0.03-1.25,0.14-1.56,0.34c-0.31,0.2-0.47,0.51-0.47,0.95c0,0.6,0.26,0.9,0.77,0.9c0.24,0,0.48-0.07,0.7-0.22
			C129.29,26.03,129.47,25.84,129.62,25.6"/>
		<path class="st2" d="M136.26,27.13h-0.81l-0.1-0.74c-0.08,0.13-0.18,0.26-0.31,0.36c-0.13,0.1-0.26,0.19-0.39,0.27
			c-0.14,0.07-0.28,0.13-0.42,0.17c-0.14,0.04-0.27,0.06-0.39,0.06c-0.32,0-0.61-0.08-0.89-0.24c-0.28-0.16-0.51-0.38-0.72-0.65
			c-0.2-0.28-0.36-0.6-0.47-0.97c-0.11-0.37-0.17-0.77-0.17-1.19c0-0.41,0.05-0.8,0.16-1.17c0.11-0.37,0.26-0.7,0.46-0.98
			c0.2-0.28,0.44-0.5,0.71-0.67c0.28-0.16,0.58-0.25,0.92-0.25c0.66,0,1.17,0.25,1.51,0.74v-3.74h0.91V27.13z M133.91,22.1
			c-0.22,0-0.41,0.05-0.58,0.16c-0.17,0.11-0.32,0.25-0.44,0.43c-0.12,0.19-0.21,0.41-0.28,0.66c-0.07,0.26-0.1,0.54-0.1,0.85
			c0,0.29,0.03,0.56,0.1,0.81c0.06,0.25,0.15,0.48,0.27,0.66c0.12,0.19,0.26,0.34,0.43,0.45c0.17,0.11,0.37,0.17,0.59,0.17
			c0.2,0,0.39-0.04,0.58-0.13c0.19-0.08,0.35-0.21,0.5-0.38c0.15-0.17,0.26-0.39,0.34-0.65c0.08-0.26,0.13-0.56,0.13-0.9
			c0-0.34-0.04-0.63-0.13-0.9c-0.09-0.26-0.21-0.49-0.35-0.67c-0.15-0.18-0.31-0.32-0.49-0.42C134.29,22.14,134.11,22.1,133.91,22.1
			"/>
		<path class="st2" d="M138.39,19.94h-0.91v-1.2h0.91V19.94z M138.39,27.13h-0.91v-5.87h0.91V27.13z"/>
		<path class="st2" d="M142.23,21.04l-0.2,1.19h-0.32c-0.1,0-0.21,0.02-0.32,0.06c-0.12,0.05-0.23,0.1-0.33,0.18
			c-0.11,0.07-0.2,0.15-0.29,0.24c-0.09,0.09-0.15,0.18-0.19,0.28v4.15h-0.97v-5.87h0.75l0.11,0.97c0.31-0.42,0.59-0.72,0.84-0.91
			c0.25-0.19,0.53-0.28,0.83-0.28H142.23z"/>
	</g>
	<rect y="16.55" class="st4" width="143.21" height="0.89"/>
	<rect x="0.01" class="st4" width="12.68" height="14.83"/>
	<path class="st5" d="M11.57,8.52c0,3.73-1.77,5.59-5.3,5.59c-3.43,0-5.14-1.82-5.14-5.46V3.01h2.85v5.67c0,2.01,0.8,3.01,2.4,3.01
		c1.56,0,2.35-0.97,2.35-2.91V0.85h2.84V8.52z"/>
	<rect x="27.54" y="1.68" class="st2" width="2.84" height="12.62"/>
	<polygon class="st2" points="52.85,14.3 45.28,14.3 45.28,1.68 52.85,1.68 52.85,3.99 48.12,3.99 48.12,6.8 52.25,6.8 52.25,9.11 
		48.12,9.11 48.12,12 52.85,12 	"/>
	<rect x="78.05" y="3.89" class="st2" width="2.84" height="10.51"/>
	<path class="st2" d="M88.3,1.6c2.75,0.23,4.28,1.47,4.56,3.72v9.05h-2.78v-4h-3.54v4h-2.78V5.32C84.02,3.07,85.53,1.84,88.3,1.6
		 M90.08,8.12v-2.7c-0.11-0.88-0.7-1.36-1.78-1.45c-1.08,0.09-1.66,0.57-1.76,1.45v2.7H90.08z"/>
	<path class="st2" d="M112.01,14.44c-1.81,0-3.28-0.57-4.42-1.71c-1.14-1.14-1.71-2.62-1.71-4.45c0-1.93,0.58-3.49,1.73-4.68
		c1.16-1.19,2.69-1.79,4.6-1.79c1.8,0,3.26,0.57,4.37,1.71c1.11,1.14,1.67,2.64,1.67,4.52c0,1.92-0.58,3.47-1.73,4.64
		C115.36,13.85,113.86,14.44,112.01,14.44 M112.13,4.18c-1,0-1.79,0.36-2.38,1.09c-0.59,0.72-0.88,1.68-0.88,2.87
		c0,1.21,0.29,2.17,0.88,2.87c0.59,0.71,1.35,1.06,2.31,1.06c0.98,0,1.76-0.34,2.33-1.03c0.58-0.68,0.86-1.63,0.86-2.85
		c0-1.27-0.28-2.25-0.84-2.96C113.86,4.53,113.1,4.18,112.13,4.18"/>
	<polygon class="st2" points="127.86,14.4 120.34,14.4 120.34,1.78 123.18,1.78 123.18,12.1 127.86,12.1 	"/>
	<rect x="129.55" y="1.78" class="st2" width="2.84" height="12.62"/>
	<path class="st2" d="M100.05,1.78H95.6v12.55h2.84v-4.33h0V7.87h0V3.95h1.12c1.51,0,2.27,0.65,2.27,1.93
		c0,1.32-0.76,1.98-2.27,1.98h-0.23v2.15h0.46c1.53,0,2.74-0.39,3.66-1.17c0.91-0.78,1.37-1.8,1.37-3.06
		C104.82,3.12,103.23,1.78,100.05,1.78"/>
	<path class="st2" d="M63.07,10.53c-0.12-0.19-0.26-0.39-0.41-0.59c-0.15-0.2-0.3-0.39-0.47-0.56c-0.16-0.18-0.33-0.33-0.51-0.46
		c-0.18-0.13-0.36-0.23-0.54-0.29V8.6c0.43-0.12,0.81-0.29,1.16-0.51c0.35-0.22,0.65-0.47,0.89-0.77c0.25-0.3,0.44-0.63,0.57-1
		c0.13-0.37,0.2-0.77,0.2-1.21c0-2.28-1.53-3.42-4.59-3.42h-4.51v12.57h2.84V3.81V3.8H59c1.32,0,1.98,0.55,1.98,1.65
		c0,0.53-0.19,0.97-0.56,1.32c-0.37,0.35-0.86,0.53-1.47,0.53H58.6v2.15c0.13,0.01,0.25,0.04,0.36,0.1
		c0.15,0.07,0.29,0.18,0.43,0.31c0.14,0.14,0.28,0.3,0.41,0.5c0.14,0.19,0.28,0.41,0.42,0.66l1.96,3.24h3.27L63.07,10.53z"/>
	<path class="st2" d="M14.11,1.69h2.68c0,0,5.28,5.02,5.94,7.51V1.66h2.61v12.6l-2.74,0.01c0,0-2.61-6.4-5.87-8.38v8.37h-2.61V1.69z
		"/>
	<path class="st2" d="M32.42,1.65h3.11c0,0-0.02,5.95,2.26,9.33c0,0,2.19-3.01,2.24-9.33h3.09c0,0,0.23,8.94-4.43,12.67h-1.8
		C36.87,14.32,32.37,10.95,32.42,1.65"/>
	<path class="st2" d="M73.01,1.66c-0.12,0-0.55,0.03-0.66,0.04v2.74c0.11-0.02,0.53-0.1,0.66-0.11V1.66z M75.05,1.66l-2.06,0
		l0.02,2.67l2.04-0.04V1.66z M76.05,1.66h-1v2.63h1V1.66z M75.88,9.36c-0.19-0.35-0.43-0.66-0.73-0.94
		c-0.29-0.28-0.62-0.54-0.99-0.76c-0.36-0.23-0.72-0.44-1.07-0.64c-0.45-0.27-0.85-0.53-1.2-0.78C71.53,6,71.36,5.73,71.36,5.43
		c0-0.24,0.08-0.44,0.22-0.59c0.15-0.16,0.35-0.27,0.59-0.35c0.06-0.02,0.12-0.03,0.18-0.04V1.7c-0.52,0.04-1.03,0.12-1.5,0.26
		c-0.69,0.2-1.27,0.47-1.76,0.81c-0.49,0.35-0.88,0.74-1.16,1.19c-0.28,0.46-0.42,0.94-0.42,1.46c0,0.46,0.09,0.86,0.28,1.21
		c0.18,0.35,0.42,0.66,0.72,0.94c0.3,0.29,0.62,0.54,0.97,0.76c0.35,0.22,0.71,0.43,1.06,0.63c0.47,0.27,0.88,0.53,1.24,0.77
		c0.35,0.25,0.53,0.53,0.53,0.84c0,0.23-0.07,0.43-0.22,0.58c-0.15,0.15-0.34,0.26-0.59,0.34c-0.25,0.08-0.53,0.14-0.84,0.16
		c-0.31,0.03-0.63,0.04-0.94,0.04c-0.33,0-0.68,0-1.03-0.01c-0.35-0.01-0.7-0.01-1.03-0.01v2.63h3c0.77,0,1.48-0.1,2.16-0.29
		c0.66-0.19,1.25-0.46,1.75-0.8c0.5-0.34,0.89-0.73,1.18-1.19c0.28-0.45,0.42-0.93,0.42-1.45C76.16,10.11,76.07,9.71,75.88,9.36"/>
	<rect x="78.05" y="3.2" class="st2" width="2.84" height="0.55"/>
	<rect x="78.05" y="2.65" class="st2" width="2.84" height="0.4"/>
	<rect x="78.05" y="2.15" class="st2" width="2.84" height="0.26"/>
	<rect x="78.06" y="1.64" class="st2" width="2.84" height="0.13"/>
	<rect x="1.13" y="2.27" class="st5" width="2.86" height="0.55"/>
	<rect x="1.13" y="1.68" class="st5" width="2.86" height="0.4"/>
	<rect x="1.13" y="1.17" class="st5" width="2.86" height="0.26"/>
	<rect x="1.13" y="0.85" class="st5" width="2.86" height="0.13"/>
	<rect x="140.95" y="1.71" class="st2" width="0.55" height="2.66"/>
	<rect x="141.65" y="1.71" class="st2" width="0.4" height="2.66"/>
	<rect x="142.3" y="1.71" class="st2" width="0.26" height="2.66"/>
	<rect x="142.93" y="1.72" class="st2" width="0.13" height="2.66"/>
	<path class="st2" d="M139.4,4.55h0.02c0,0,0.73-0.18,1.41-0.17V1.72c0,0-0.93,0.02-1.41,0.08l-0.02,0
		c-0.52,0.04-1.03,0.12-1.5,0.26c-0.69,0.2-1.27,0.47-1.76,0.81c-0.49,0.34-0.88,0.74-1.16,1.19c-0.28,0.45-0.42,0.94-0.42,1.46
		c0,0.46,0.09,0.86,0.28,1.21c0.18,0.35,0.42,0.66,0.72,0.94c0.3,0.29,0.62,0.53,0.97,0.76c0.36,0.22,0.71,0.43,1.06,0.63
		c0.47,0.27,0.88,0.52,1.24,0.77c0.35,0.25,0.53,0.53,0.53,0.84c0,0.23-0.08,0.43-0.22,0.58c-0.15,0.15-0.34,0.26-0.59,0.34
		c-0.25,0.08-0.53,0.14-0.84,0.16c-0.31,0.03-0.63,0.04-0.94,0.04c-0.33,0-0.68,0-1.03-0.01c-0.36,0-0.7-0.01-1.03-0.01v2.63h3
		c0.77,0,1.48-0.1,2.16-0.29c0.66-0.19,1.25-0.46,1.75-0.8c0.5-0.34,0.89-0.73,1.18-1.19c0.29-0.45,0.42-0.93,0.42-1.45
		c0-0.46-0.08-0.86-0.27-1.21c-0.19-0.34-0.43-0.65-0.72-0.94c-0.29-0.28-0.63-0.54-0.99-0.76c-0.36-0.23-0.72-0.44-1.07-0.64
		c-0.45-0.27-0.86-0.53-1.21-0.77c-0.36-0.25-0.53-0.52-0.53-0.82c0-0.24,0.08-0.43,0.22-0.59c0.15-0.15,0.35-0.27,0.59-0.35
		C139.28,4.57,139.34,4.56,139.4,4.55"/>
</g>
</svg>
